{
    "asset" : {
        "generator" : "Khronos glTF Blender I/O v1.8.19",
        "version" : "2.0"
    },
    "scene" : 0,
    "scenes" : [
        {
            "name" : "Scene",
            "nodes" : [
                0
            ]
        }
    ],
    "nodes" : [
        {
            "mesh" : 0,
            "name" : "\u5de5\u7a0b\u8f6613"
        }
    ],
    "materials" : [
        {
            "doubleSided" : true,
            "name" : "Mat3d66-1097112-2-3850",
            "pbrMetallicRoughness" : {
                "baseColorTexture" : {
                    "index" : 0
                },
                "metallicFactor" : 0.20472441613674164,
                "roughnessFactor" : 0.7283464670181274
            }
        }
    ],
    "meshes" : [
        {
            "name" : "Obj3d66-1097112-8-571",
            "primitives" : [
                {
                    "attributes" : {
                        "POSITION" : 0,
                        "NORMAL" : 1,
                        "TEXCOORD_0" : 2
                    },
                    "indices" : 3,
                    "material" : 0
                }
            ]
        }
    ],
    "textures" : [
        {
            "sampler" : 0,
            "source" : 0
        }
    ],
    "images" : [
        {
            "bufferView" : 4,
            "mimeType" : "image/png",
            "name" : "3d66Model-1097112-files-1"
        }
    ],
    "accessors" : [
        {
            "bufferView" : 0,
            "componentType" : 5126,
            "count" : 1473,
            "max" : [
                0.7128801345825195,
                1.6272003650665283,
                1.8073499202728271
            ],
            "min" : [
                -0.7128801345825195,
                4.011713209621081e-15,
                -1.8073500394821167
            ],
            "type" : "VEC3"
        },
        {
            "bufferView" : 1,
            "componentType" : 5126,
            "count" : 1473,
            "type" : "VEC3"
        },
        {
            "bufferView" : 2,
            "componentType" : 5126,
            "count" : 1473,
            "type" : "VEC2"
        },
        {
            "bufferView" : 3,
            "componentType" : 5123,
            "count" : 2892,
            "type" : "SCALAR"
        }
    ],
    "bufferViews" : [
        {
            "buffer" : 0,
            "byteLength" : 17676,
            "byteOffset" : 0
        },
        {
            "buffer" : 0,
            "byteLength" : 17676,
            "byteOffset" : 17676
        },
        {
            "buffer" : 0,
            "byteLength" : 11784,
            "byteOffset" : 35352
        },
        {
            "buffer" : 0,
            "byteLength" : 5784,
            "byteOffset" : 47136
        },
        {
            "buffer" : 0,
            "byteLength" : 66957,
            "byteOffset" : 52920
        }
    ],
    "samplers" : [
        {
            "magFilter" : 9729,
            "minFilter" : 9987
        }
    ],
    "buffers" : [
        {
            "byteLength" : 119880,
            "uri" : "data:application/octet-stream;base64,"
        }
    ]
}
